<?xml version="1.0" standalone="no"?>
<!DOCTYPE svg PUBLIC "-//W3C//DTD SVG 1.0//EN" "http://www.w3.org/TR/2001/REC-SVG-20010904/DTD/svg10.dtd">
<svg xmlns="http://www.w3.org/2000/svg" xmlns:xlink="http://www.w3.org/1999/xlink" id="body_1" width="102" height="77">

<g transform="matrix(0.44767445 0 0 0.44767445 0.4127921 -0)">
    <path d="M153.1 93.5L194.70001 87.6C 193.90001 80.299995 195.1 71.6 187.6 71C 164.6 69.4 123.3 69.3 123.3 69.3C 122.8 39.9 121.200005 39.600002 115.9 39.800003C 115.8 38.9 115.6 38.100002 115.4 37.300003L115.4 37.300003L125.9 37.300003L125.9 36.800003L115.3 36.800003C 114.8 35.000004 114.100006 33.800003 113.5 33.800003C 112.899994 33.800003 112.2 34.9 111.7 36.800003L111.7 36.800003L101.299995 36.800003L101.299995 37.300003L111.49999 37.300003C 111.299995 38.000004 111.09999 38.9 110.99999 39.800003C 106.49999 40.100002 104.899994 43.200005 104.49999 69.3C 104.49999 69.3 61.399994 70.100006 38.399994 71.700005C 30.799994 72.200005 32.099995 81.00001 31.299994 88.3L31.299994 88.3L74.7 93.5L104.799995 93.1C 104.799995 93.1 107.49999 132.1 110.49999 145.2L110.49999 145.2L86.09999 148.5C 85.399994 148.6 84.899994 149.2 84.899994 149.9L84.899994 149.9L84.899994 159.4C 84.899994 160.09999 85.399994 160.7 86.09999 160.79999L86.09999 160.79999L110.29999 164.09999L111.999985 159.59999L113.29999 170.29999C 113.39999 170.9 114.29999 170.9 114.29999 170.29999L114.29999 170.29999L115.59999 159.59999L117.29999 164.09999L141.49998 160.79999C 142.19998 160.69998 142.69998 160.09999 142.69998 159.4L142.69998 159.4L142.69998 149.9C 142.69998 149.2 142.19998 148.59999 141.49998 148.5L141.49998 148.5L117.09998 145.2C 120.29998 132 122.999985 93 122.999985 93L122.999985 93L153.1 93.5z" stroke="none" fill="#FF0013" fill-rule="nonzero" />
</g>
</svg>